<svg width="20" height="20" viewBox="0 0 20 20" fill="currentColor" xmlns="http://www.w3.org/2000/svg">
<path fill-rule="evenodd" clip-rule="evenodd" d="M19.1879 19.1879C18.7394 19.6364 18.0122 19.6364 17.5637 19.1879L0.812103 2.43631C0.363591 1.9878 0.363591 1.26061 0.812103 0.812103C1.26061 0.363591 1.9878 0.363591 2.43631 0.812103L19.1879 17.5637C19.6364 18.0122 19.6364 18.7394 19.1879 19.1879Z" />
<path fill-rule="evenodd" clip-rule="evenodd" d="M19.1879 0.812041C19.6364 1.26055 19.6364 1.98773 19.1879 2.43625L2.43631 19.1878C1.9878 19.6363 1.26061 19.6363 0.812103 19.1878C0.363591 18.7393 0.363591 18.0121 0.812103 17.5636L17.5637 0.812041C18.0122 0.36353 18.7394 0.36353 19.1879 0.812041Z" />
</svg>
