<svg width="30" height="30" viewBox="0 0 30 30" fill="none" xmlns="http://www.w3.org/2000/svg">
<path fill-rule="evenodd" clip-rule="evenodd" d="M29.4498 26.9457L21.2361 18.7285C22.7084 16.7204 23.4971 14.2926 23.4861 11.8025C23.458 5.30257 18.201 0.0376613 11.7014 0.000119401C8.59095 -0.0139541 5.60409 1.21659 3.40617 3.41761C1.20825 5.61863 -0.0181393 8.6073 0.000202824 11.7178C0.0282953 18.2183 5.28583 23.4837 11.786 23.5213C14.2861 23.5321 16.7227 22.7342 18.7322 21.2465L18.7407 21.2401L26.9469 29.4508C27.3906 29.9163 28.0517 30.1047 28.6741 29.9431C29.2965 29.7814 29.7824 29.2951 29.9435 28.6726C30.1046 28.05 29.9156 27.389 29.4498 26.9457ZM11.7759 21.1683C6.57607 21.1384 2.37011 16.9265 2.34729 11.7264C2.33325 9.23829 3.31444 6.84784 5.07245 5.08715C6.83045 3.32646 9.21935 2.34167 11.7074 2.35201C16.9073 2.38192 21.1132 6.59378 21.136 11.7939C21.1501 14.282 20.1689 16.6725 18.4109 18.4331C16.6529 20.1938 14.264 21.1786 11.7759 21.1683Z" fill="#C4C4C4"/>
</svg>
